<svg xmlns="http://www.w3.org/2000/svg" viewBox="0 0 72.11 70"><defs><style>.cls-1{fill:#bf0404;}</style></defs><title>heart-empty</title><g id="Layer_2" data-name="Layer 2"><g id="Layer_1-2" data-name="Layer 1"><path class="cls-1" d="M66.68,15.65a1.39,1.39,0,0,0-1.89.87c-.07.16-.14.4-.27.45l-1.94.73c-.06-.3-.13-.59-.2-.88.08-.09.17-.17.16-.24a2.27,2.27,0,0,0-.28-.63c0,.06,0,.08-.07.13-.1-.34-.19-.67-.3-1a1.94,1.94,0,0,0,.21-.2c-.2-.24-.3-.48-.42-.49h0a18.56,18.56,0,0,0-1-2.35l.07-.05-.14-.08a15.79,15.79,0,0,0-24.36-4.6c-.36-.1-.72-.2-1.08-.28-.13,0-.34.26-.51.4.19.15.41.44.59.42a2,2,0,0,1,.42,0,22.53,22.53,0,0,0-2.28,2.53,12.64,12.64,0,0,0-1.24,2c-.44.86-.72.76-1.15,0a17.3,17.3,0,0,0-3.59-4.56A.77.77,0,0,0,27,7.4s0,0-.07,0a18.38,18.38,0,0,0-1.55-1.21C17.69.75,7,3.45,2.39,12A20,20,0,0,0,.26,18.65C.2,19,.09,19.42,0,19.81v4.56c.59,2.22,1,4.5,1.8,6.63a46.11,46.11,0,0,0,8,13.76c4.5,5.46,9.08,10.83,13.66,16.2a1.38,1.38,0,0,0-1,.53,1,1,0,0,0,.11,1.31,1.87,1.87,0,0,1,.39.7c.29,1.14.82,1.58,1.91,1.35a1.53,1.53,0,0,0,1-.71c.05-.13-.05-.34-.17-.55.49.59,1,1.17,1.48,1.75-.43.18-.83.61-.71.92s.54.52.72.69a2.37,2.37,0,0,0,1-.37l2.48,2.92c.57.67.89.67,1.46,0,7-8.25,14-16.39,20.92-24.74A46.11,46.11,0,0,0,61.2,31a43.06,43.06,0,0,0,1.18-4.15,1.35,1.35,0,0,0,0,.18l.07.07c.2,0,.43.14.58.07s.59-.32.61-.52c0-.48-.3-.71-.77-.7a.76.76,0,0,0-.32.07c.14-.55.27-1.1.42-1.65v-.06a1,1,0,0,1,.93.52,1.42,1.42,0,0,0,2-.08,3.57,3.57,0,0,0,.24-1.21l-.88.08-.7.09c-.23-.77-.48-1.54-.68-2.32s-.6-1.74.53-2.29a.28.28,0,0,0,.14-.18c.08-.4.13-.81.2-1.21.52.43.86,0,1.25-.25h0a3,3,0,0,0,.72-.36c.22-.19.52-.49.48-.7A1.2,1.2,0,0,0,66.68,15.65ZM56.5,34.79A86.82,86.82,0,0,1,47.1,48c-4.86,5.76-9.85,11.37-14.77,17.06-.52.61-.88,1-1.56.13C24.51,57.79,18.12,50.5,12,43A47.7,47.7,0,0,1,4.3,30.15c-2-5.15-2.38-10.33-.19-15.53a13.52,13.52,0,0,1,14.05-8A13.84,13.84,0,0,1,23.87,8.8h0l.09,0c.26.18.52.37.77.57a1.3,1.3,0,0,1-.55-.15A1.58,1.58,0,0,0,22.84,11c.26.81.64.93,1.12.23s1-.21,1.36-.1a8.86,8.86,0,0,0,1.49.28,24.16,24.16,0,0,1,3.9,6.47c.1.23.16.48.27.69s.38.62.57.92c.15-.29.3-.59.47-.87a52,52,0,0,1,3.73-6.55c5.29-6.75,13.8-7.49,20-2A14.6,14.6,0,0,1,60,18.32l-.12.05.06.08s.07,0,.08,0a21.2,21.2,0,0,1,.37,4C60.31,26.82,58.66,30.92,56.5,34.79ZM24.92,10.24c-.14.07-.27.18-.4.18a2.25,2.25,0,0,1-.59-.19h.54Zm39.7,13.48c.07.13.15.25.21.39a1.49,1.49,0,0,1,.09.3c-.1,0-.22,0-.29-.06a1.9,1.9,0,0,1-.4-.4c-.06-.09,0-.22,0-.34Zm1.44-6.26Z"/><path class="cls-1" d="M71.7,23.4c-1-.29-2.06-.5-3.19-.77l-1.39.88,1,.48a1,1,0,0,1,.3.18c.36.45.6.33,1,0s1-.73,1.47.14c.09.18.47.4.6.34a1.19,1.19,0,0,0,.57-.66C72.15,23.83,71.89,23.45,71.7,23.4Z"/><path class="cls-1" d="M53.32,23.3a1.26,1.26,0,0,0-1.2,1,1.06,1.06,0,0,0,1.17.93,1,1,0,0,0,1.1-1C54.33,23.55,53.87,23.33,53.32,23.3Z"/><path class="cls-1" d="M65,15.47a1.14,1.14,0,0,0,1.07-1.08,1.23,1.23,0,0,0-1-1,1.13,1.13,0,0,0-1,1A1,1,0,0,0,65,15.47Z"/><path class="cls-1" d="M53.16,17c-.49-.16-.67,0-.46.4a9.44,9.44,0,0,0,1,1.33l.12-.11C54.26,17.37,54.22,17.35,53.16,17Z"/><path class="cls-1" d="M62.6,12.84a6.42,6.42,0,0,0,1.09-.75l-1.06-.42L62,12.3C62.19,12.49,62.48,12.88,62.6,12.84Z"/><path class="cls-1" d="M53.87,18.61l-.12.12c0,.51.18.95.8.94.13,0,.26-.21.39-.32l-1-.72S53.91,18.61,53.87,18.61Z"/><path class="cls-1" d="M59.23,19.53a6.88,6.88,0,0,0-.58-.84c-.21.39-.44.66-.38.74a1.25,1.25,0,0,0,.62.43C59,19.89,59.26,19.58,59.23,19.53Z"/><path class="cls-1" d="M56.84,19s.06,0,.09-.07L57,19l0-.05h0c-.08-.43-.25-.79-.76-.52-.12.06-.15.28-.2.47a1,1,0,0,0-.1.14,1.5,1.5,0,0,0,.24.2c0-.06.12-.12.11-.18a.14.14,0,0,0,0-.06Z"/><path class="cls-1" d="M57.4,22.2l-.09.48a4.24,4.24,0,0,0-.65-.46c-.1,0-.27,0-.41.06a4.09,4.09,0,0,0,.58.9c.39.35.63.17.65-.33a1.48,1.48,0,0,0,.32.14c.25.05.5.08.75.11l-1-.9S57.41,22.19,57.4,22.2Z"/><path class="cls-1" d="M58.75,26.18c.09.17.31.28.47.42l.34-.72C58.66,25.74,58.56,25.78,58.75,26.18Z"/><path class="cls-1" d="M59.57,25.87h0Z"/><path class="cls-1" d="M59.89,24.16c-.11-.07-.22-.22-.31-.2a.48.48,0,0,0-.3.26c0,.05.14.18.27.33Z"/><path class="cls-1" d="M66.05,17.8a.78.78,0,0,0,.29.28s.15-.11.14-.15a.49.49,0,0,0-.13-.28,2,2,0,0,0-.29-.17C66.05,17.59,66,17.72,66.05,17.8Z"/><path class="cls-1" d="M56.7,17.44a1.74,1.74,0,0,0-.26-.15s-.14.14-.13.15a1.55,1.55,0,0,0,.23.21Z"/><path class="cls-1" d="M59.57,25.87h0l0-.06Z"/><path class="cls-1" d="M59.85,25.46c-.07.12-.15.24-.23.36l.32-.29Z"/><path class="cls-1" d="M57,25.89l.13.17.21-.08-.09-.21Z"/><path class="cls-1" d="M56.27,15c0-.06,0-.14-.09-.17s-.11,0-.17.07,0,.15.08.16S56.21,15,56.27,15Z"/><path class="cls-1" d="M57.23,23.73a1.46,1.46,0,0,0,.07.19l.21-.07c0-.06,0-.16-.09-.18S57.29,23.7,57.23,23.73Z"/><path class="cls-1" d="M53,19.08,52.86,19l-.09.16s.07.07.09.06A.65.65,0,0,0,53,19.08Z"/><polygon class="cls-1" points="63.46 15.63 63.37 15.67 63.46 15.72 63.46 15.63"/><polygon class="cls-1" points="63.9 10.6 63.81 10.63 63.89 10.68 63.9 10.6"/><path class="cls-1" d="M33.39,17.47c-.33,0-.9,1.05-.74,1.34,0,.08.18.1.35.19a6.59,6.59,0,0,0,1-.87C34.16,17.85,33.78,17.43,33.39,17.47Z"/><path class="cls-1" d="M35.68,15.68a5,5,0,0,0-.24.71,1.81,1.81,0,0,0,.06.56c.18-.07.46-.11.5-.23a1.93,1.93,0,0,0,0-.83C36,15.81,35.8,15.75,35.68,15.68Z"/><path class="cls-1" d="M24.53,16.83c-.08,0-.19-.18-.25-.15-.33.12-.64.29-1,.44l.32.45Z"/><path class="cls-1" d="M27.11,5.66h0Z"/><path class="cls-1" d="M27.09,5.66c-.14-.39,1.07-.09.38-.7A.76.76,0,0,0,26.7,5C26.45,5.4,26.75,5.58,27.09,5.66Z"/><path class="cls-1" d="M25,1.35c.07,0,.25-.22.38-.35L24.63.57c-.08.18-.19.33-.16.36A1.3,1.3,0,0,0,25,1.35Z"/><path class="cls-1" d="M28.38,7l-.22-.32a3.33,3.33,0,0,0-.39.35s.09.17.14.26Z"/><path class="cls-1" d="M22.27,17.4c.09.05.19.08.28.12l.09-.24a1.18,1.18,0,0,0-.3-.07S22.26,17.39,22.27,17.4Z"/><path class="cls-1" d="M22,9.08c0,.06.06.14.11.16s.12,0,.18-.06L22.12,9Z"/><path class="cls-1" d="M28.72,15.26a1,1,0,0,0,.29.08s.06-.12.11-.23a1.27,1.27,0,0,0-.32,0S28.75,15.19,28.72,15.26Z"/><path class="cls-1" d="M29.34,15.74c.06,0,.14.1.19.09s.06-.12.09-.18a.52.52,0,0,0-.19-.08S29.37,15.68,29.34,15.74Z"/><path class="cls-1" d="M35.5,17h0v0Z"/><path class="cls-1" d="M35,17.07l.45-.11L35,16.87Z"/><path class="cls-1" d="M27.22,17.82c0,.06.07.15.12.17s.12,0,.19,0l-.16-.23Z"/><path class="cls-1" d="M26.82,6.17s.09.08.14.12L27.14,6l-.09-.07A3.25,3.25,0,0,0,26.82,6.17Z"/><path class="cls-1" d="M26,4.17,25.89,4c-.06,0-.15,0-.17.1s0,.13.05.19Z"/><polygon class="cls-1" points="22.42 15.25 22.38 15.32 22.45 15.32 22.42 15.25"/><polygon class="cls-1" points="28.18 15.11 28.21 15.04 28.15 15.04 28.18 15.11"/><path class="cls-1" d="M23.14,3.84l-.1,0S23,3.9,23,4s.07,0,.09,0S23.13,3.87,23.14,3.84Z"/><polygon class="cls-1" points="28.82 0 28.75 0.03 28.81 0.07 28.82 0"/><path class="cls-1" d="M27.1,5.69s0,0,0,0l0,0Z"/><path class="cls-1" d="M27.14,6s0-.07,0-.1a1.66,1.66,0,0,0-.06-.16.48.48,0,0,1-.05.18Z"/><path class="cls-1" d="M23.42,55.85c.21.19.4.52.63.56s.57-.19,1.16-.42c-.51-.38-.78-.72-1-.71S23.68,55.65,23.42,55.85Z"/><path class="cls-1" d="M29.7,58.53s.19.21.2.2c.21-.15.39-.31.68-.55a2.87,2.87,0,0,0-.44-.27A4.61,4.61,0,0,0,29.7,58.53Z"/><path class="cls-1" d="M29.91,60.56l.16.24.16-.14s-.06-.15-.11-.16S30,60.54,29.91,60.56Z"/></g></g></svg>