<svg xmlns="http://www.w3.org/2000/svg" viewBox="0 0 72.11 70"><defs><style>.cls-1{fill:#bf0404;}</style></defs><title>heart-full</title><g id="Layer_2" data-name="Layer 2"><g id="Layer_1-2" data-name="Layer 1"><path class="cls-1" d="M71.7,23.39c-1-.28-2.06-.5-3.19-.76l-1.39.87,1,.49a.83.83,0,0,1,.3.18c.36.44.6.33,1,0s1-.73,1.47.14c.09.18.47.39.6.33a1.17,1.17,0,0,0,.57-.65C72.15,23.83,71.89,23.45,71.7,23.39Z"/><path class="cls-1" d="M66,17.8a1,1,0,0,0,.3.27s.14-.09.14-.14a.49.49,0,0,0-.13-.28,1.05,1.05,0,0,0-.29-.17C66.05,17.59,66,17.71,66,17.8Z"/><path class="cls-1" d="M65,15.47a1.15,1.15,0,0,0,1.07-1.08,1.22,1.22,0,0,0-1-1,1.12,1.12,0,0,0-1,1A1,1,0,0,0,65,15.47Z"/><path class="cls-1" d="M66.06,17.48h0A0,0,0,0,1,66.06,17.48Z"/><polygon class="cls-1" points="63.89 10.59 63.81 10.63 63.89 10.67 63.89 10.59"/><polygon class="cls-1" points="63.46 15.63 63.36 15.67 63.46 15.72 63.46 15.63"/><path class="cls-1" d="M62.59,12.83a5.58,5.58,0,0,0,1.1-.74l-1.06-.42L62,12.3C62.19,12.49,62.48,12.88,62.59,12.83Z"/><polygon class="cls-1" points="28.82 0 28.75 0.02 28.81 0.06 28.82 0"/><path class="cls-1" d="M28.38,7c-.1-.14-.16-.23-.23-.31a2.5,2.5,0,0,0-.38.35s.09.17.14.26Z"/><path class="cls-1" d="M27.09,5.65c-.14-.38,1.07-.09.38-.7A.81.81,0,0,0,26.7,5C26.45,5.39,26.75,5.57,27.09,5.65Z"/><path class="cls-1" d="M26.82,6.17l.14.12.18-.35s0-.06,0-.09l-.06-.16a.61.61,0,0,1-.05.18A3.4,3.4,0,0,0,26.82,6.17Z"/><path class="cls-1" d="M27.1,5.69v0h0v0S27.1,5.68,27.1,5.69Z"/><path class="cls-1" d="M26,4.17,25.88,4c-.05,0-.15,0-.16.1s0,.13.05.2Z"/><path class="cls-1" d="M25,1.34c.07,0,.25-.22.38-.34L24.63.56c-.08.18-.19.33-.16.37A1.36,1.36,0,0,0,25,1.34Z"/><path class="cls-1" d="M23.13,3.84,23,3.8c0,.05,0,.1,0,.14a.13.13,0,0,0,.09,0S23.13,3.87,23.13,3.84Z"/><path class="cls-1" d="M66.68,15.65a1.39,1.39,0,0,0-1.89.86c-.07.17-.14.4-.27.46l-1.94.73c-.06-.3-.13-.6-.21-.89.09-.08.18-.16.17-.24a2.61,2.61,0,0,0-.28-.62l-.08.12c-.09-.33-.18-.67-.29-1l.21-.2c-.2-.25-.31-.48-.43-.49h0a20,20,0,0,0-1-2.35l.08,0-.14-.08A15.78,15.78,0,0,0,36.17,7.31L35.09,7c-.13,0-.34.27-.51.41.19.15.41.44.58.42a2.16,2.16,0,0,1,.43,0,20.9,20.9,0,0,0-2.28,2.53,12.64,12.64,0,0,0-1.24,2c-.45.85-.73.75-1.15,0a17.41,17.41,0,0,0-3.59-4.55A.79.79,0,0,0,27,7.39l-.07,0a18.48,18.48,0,0,0-1.55-1.22C17.69.75,7,3.45,2.39,12A20,20,0,0,0,.26,18.64C.2,19,.09,19.42,0,19.8v4.57C.59,26.58,1,28.86,1.8,31a46,46,0,0,0,8,13.77C14.35,50.21,18.93,55.58,23.5,61a1.43,1.43,0,0,0-.94.54,1,1,0,0,0,.11,1.3,1.84,1.84,0,0,1,.39.71c.29,1.14.82,1.57,1.91,1.34a1.46,1.46,0,0,0,1-.71c.05-.13-.05-.33-.18-.54l1.49,1.75c-.43.18-.83.6-.71.91s.54.53.72.7a2.37,2.37,0,0,0,1-.37c.83,1,1.66,1.94,2.48,2.92.57.67.89.66,1.46,0,7-8.25,14-16.39,20.92-24.73A46.28,46.28,0,0,0,61.2,31c.48-1.34.83-2.74,1.18-4.14a1.35,1.35,0,0,0,0,.18l.07.07c.2,0,.43.14.58.07s.59-.33.61-.53c0-.47-.31-.71-.77-.7a1,1,0,0,0-.32.07c.14-.55.27-1.1.42-1.64v-.06a1,1,0,0,1,.93.52,1.43,1.43,0,0,0,2-.08,3.89,3.89,0,0,0,.24-1.22l-.88.09-.7.08c-.23-.77-.48-1.54-.68-2.32s-.6-1.74.52-2.29a.28.28,0,0,0,.15-.17c.08-.41.13-.81.19-1.22.53.44.86,0,1.25-.23h0a3,3,0,0,0,.72-.37c.22-.18.51-.49.48-.69A1.15,1.15,0,0,0,66.68,15.65ZM24.52,10.41a2.22,2.22,0,0,1-.59-.18h.54l.44,0C24.78,10.3,24.65,10.42,24.52,10.41Zm40.09,13.3a3.11,3.11,0,0,1,.22.4,2.46,2.46,0,0,1,.09.29.65.65,0,0,1-.29,0,1.94,1.94,0,0,1-.4-.41c-.06-.08,0-.22,0-.33Z"/></g></g></svg>